<svg width="32" height="32" viewBox="0 0 32 32" fill="none" xmlns="http://www.w3.org/2000/svg">
<path d="M16.0049 0C9.32553 0 7.37177 0.00687501 6.99177 0.038125C5.62114 0.1525 4.76801 0.368125 3.83863 0.831251C3.12237 1.18688 2.55737 1.59938 2.00049 2.1775C0.984865 3.23125 0.369863 4.52813 0.147362 6.06938C0.0392363 6.81751 0.00736114 6.97063 0.00111112 10.7931C-0.00138889 12.0675 0.00111112 13.7444 0.00111112 15.9938C0.00111112 22.67 0.00861115 24.6219 0.0404863 25.0013C0.151112 26.3357 0.360488 27.175 0.803615 28.0932C1.65049 29.8507 3.26738 31.17 5.17176 31.6625C5.83114 31.8325 6.55989 31.9257 7.49489 31.97C7.89115 31.9875 11.9299 31.9994 15.9712 31.9994C20.0124 31.9994 24.0531 31.9944 24.44 31.975C25.5231 31.9238 26.1518 31.8394 26.8469 31.66C28.7637 31.165 30.3512 29.8657 31.215 28.0832C31.6494 27.1869 31.8694 26.3157 31.9694 25.0513C31.9913 24.7757 32 20.3794 32 15.9894C32 11.5988 31.99 7.21063 31.9688 6.93501C31.8681 5.65001 31.6475 4.78563 31.1994 3.8725C30.8312 3.125 30.4231 2.56625 29.83 1.99563C28.7712 0.984376 27.4769 0.36875 25.9344 0.14625C25.1862 0.03875 25.0375 0.00687501 21.2131 0H16.0049Z" fill="url(#paint0_radial_402_1047)"/>
<path d="M16.0049 0C9.32553 0 7.37177 0.00687501 6.99177 0.038125C5.62114 0.1525 4.76801 0.368125 3.83863 0.831251C3.12237 1.18688 2.55737 1.59938 2.00049 2.1775C0.984865 3.23125 0.369863 4.52813 0.147362 6.06938C0.0392363 6.81751 0.00736114 6.97063 0.00111112 10.7931C-0.00138889 12.0675 0.00111112 13.7444 0.00111112 15.9938C0.00111112 22.67 0.00861115 24.6219 0.0404863 25.0013C0.151112 26.3357 0.360488 27.175 0.803615 28.0932C1.65049 29.8507 3.26738 31.17 5.17176 31.6625C5.83114 31.8325 6.55989 31.9257 7.49489 31.97C7.89115 31.9875 11.9299 31.9994 15.9712 31.9994C20.0124 31.9994 24.0531 31.9944 24.44 31.975C25.5231 31.9238 26.1518 31.8394 26.8469 31.66C28.7637 31.165 30.3512 29.8657 31.215 28.0832C31.6494 27.1869 31.8694 26.3157 31.9694 25.0513C31.9913 24.7757 32 20.3794 32 15.9894C32 11.5988 31.99 7.21063 31.9688 6.93501C31.8681 5.65001 31.6475 4.78563 31.1994 3.8725C30.8312 3.125 30.4231 2.56625 29.83 1.99563C28.7712 0.984376 27.4769 0.36875 25.9344 0.14625C25.1862 0.03875 25.0375 0.00687501 21.2131 0H16.0049Z" fill="url(#paint1_radial_402_1047)"/>
<path d="M16.0049 0C9.32553 0 7.37177 0.00687501 6.99177 0.038125C5.62114 0.1525 4.76801 0.368125 3.83863 0.831251C3.12237 1.18688 2.55737 1.59938 2.00049 2.1775C0.984865 3.23125 0.369863 4.52813 0.147362 6.06938C0.0392363 6.81751 0.00736114 6.97063 0.00111112 10.7931C-0.00138889 12.0675 0.00111112 13.7444 0.00111112 15.9938C0.00111112 22.67 0.00861115 24.6219 0.0404863 25.0013C0.151112 26.3357 0.360488 27.175 0.803615 28.0932C1.65049 29.8507 3.26738 31.17 5.17176 31.6625C5.83114 31.8325 6.55989 31.9257 7.49489 31.97C7.89115 31.9875 11.9299 31.9994 15.9712 31.9994C20.0124 31.9994 24.0531 31.9944 24.44 31.975C25.5231 31.9238 26.1518 31.8394 26.8469 31.66C28.7637 31.165 30.3512 29.8657 31.215 28.0832C31.6494 27.1869 31.8694 26.3157 31.9694 25.0513C31.9913 24.7757 32 20.3794 32 15.9894C32 11.5988 31.99 7.21063 31.9688 6.93501C31.8681 5.65001 31.6475 4.78563 31.1994 3.8725C30.8312 3.125 30.4231 2.56625 29.83 1.99563C28.7712 0.984376 27.4769 0.36875 25.9344 0.14625C25.1862 0.03875 25.0375 0.00687501 21.2131 0H16.0049Z" fill="url(#paint2_radial_402_1047)"/>
<path d="M16.0049 0C9.32553 0 7.37177 0.00687501 6.99177 0.038125C5.62114 0.1525 4.76801 0.368125 3.83863 0.831251C3.12237 1.18688 2.55737 1.59938 2.00049 2.1775C0.984865 3.23125 0.369863 4.52813 0.147362 6.06938C0.0392363 6.81751 0.00736114 6.97063 0.00111112 10.7931C-0.00138889 12.0675 0.00111112 13.7444 0.00111112 15.9938C0.00111112 22.67 0.00861115 24.6219 0.0404863 25.0013C0.151112 26.3357 0.360488 27.175 0.803615 28.0932C1.65049 29.8507 3.26738 31.17 5.17176 31.6625C5.83114 31.8325 6.55989 31.9257 7.49489 31.97C7.89115 31.9875 11.9299 31.9994 15.9712 31.9994C20.0124 31.9994 24.0531 31.9944 24.44 31.975C25.5231 31.9238 26.1518 31.8394 26.8469 31.66C28.7637 31.165 30.3512 29.8657 31.215 28.0832C31.6494 27.1869 31.8694 26.3157 31.9694 25.0513C31.9913 24.7757 32 20.3794 32 15.9894C32 11.5988 31.99 7.21063 31.9688 6.93501C31.8681 5.65001 31.6475 4.78563 31.1994 3.8725C30.8312 3.125 30.4231 2.56625 29.83 1.99563C28.7712 0.984376 27.4769 0.36875 25.9344 0.14625C25.1862 0.03875 25.0375 0.00687501 21.2131 0H16.0049Z" fill="url(#paint3_radial_402_1047)"/>
<path d="M23.9998 15.9999C23.9998 20.418 20.4182 23.9997 16 23.9997C11.5818 23.9997 8.00015 20.418 8.00015 15.9999C8.00015 11.5817 11.5818 8 16 8C20.4182 8 23.9998 11.5817 23.9998 15.9999Z" fill="white"/>
<defs>
<radialGradient id="paint0_radial_402_1047" cx="0" cy="0" r="1" gradientUnits="userSpaceOnUse" gradientTransform="translate(30.9669 14.999) rotate(164.251) scale(20.4463 14.7306)">
<stop stop-color="#FF005F"/>
<stop offset="1" stop-color="#FC01D8"/>
</radialGradient>
<radialGradient id="paint1_radial_402_1047" cx="0" cy="0" r="1" gradientUnits="userSpaceOnUse" gradientTransform="translate(8.49969 34.4647) rotate(-90) scale(25.5431 27.1008)">
<stop stop-color="#FFCC00"/>
<stop offset="0.1242" stop-color="#FFCC00"/>
<stop offset="0.5672" stop-color="#FE4A05"/>
<stop offset="0.6942" stop-color="#FF0F3F"/>
<stop offset="1" stop-color="#FE0657" stop-opacity="0"/>
</radialGradient>
<radialGradient id="paint2_radial_402_1047" cx="0" cy="0" r="1" gradientUnits="userSpaceOnUse" gradientTransform="translate(16.8083 31.5486) rotate(-59.8696) scale(10.5623 13.751)">
<stop stop-color="#FFCC00"/>
<stop offset="1" stop-color="#FFCC00" stop-opacity="0"/>
</radialGradient>
<radialGradient id="paint3_radial_402_1047" cx="0" cy="0" r="1" gradientUnits="userSpaceOnUse" gradientTransform="translate(4.34167 1.30408) rotate(164.274) scale(20.2195 6.88878)">
<stop stop-color="#780CFF"/>
<stop offset="1" stop-color="#820BFF" stop-opacity="0"/>
</radialGradient>
</defs>
</svg>
