<svg width="282" height="59" viewBox="0 0 282 59" fill="none" xmlns="http://www.w3.org/2000/svg">
<path d="M4.43129 14.6164V27.5351H0V0.619248H4.43129V12.8775H17.6631V0.619248H22.0907V27.5351H17.6631V14.6164H4.43129Z" fill="black"/>
<path d="M38.6661 0.619248H34.2385V27.5389H38.6661V0.619248Z" fill="black"/>
<path d="M65.8306 1.94415C64.2282 1.94415 62.7572 2.23522 61.4139 2.81361C60.0743 3.39201 58.9172 4.21669 57.9426 5.28392C56.9717 6.35115 56.2125 7.64601 55.6759 9.16476C55.1357 10.6835 54.8656 12.3888 54.8656 14.2845C54.8656 16.1801 55.1576 17.8892 55.7416 19.4042C56.3256 20.923 57.1323 22.2178 58.158 23.2813C59.1837 24.3486 60.3919 25.1732 61.7753 25.7516C63.1624 26.33 64.6553 26.6211 66.2577 26.6211C67.4111 26.6211 68.4478 26.4606 69.3786 26.136C70.3057 25.8151 71.1379 25.3598 71.8753 24.7702V15.3293H66.9074V13.7285H76.3066V25.5725C75.5327 25.9979 74.7552 26.3673 73.9705 26.692C73.1857 27.0129 72.3461 27.2853 71.4446 27.5055C70.543 27.7256 69.5501 27.8936 68.4624 28.0018C67.371 28.1137 66.1445 28.166 64.7757 28.166C62.5966 28.166 60.5853 27.7965 58.7384 27.0614C56.8914 26.3263 55.2999 25.3262 53.9567 24.065C52.6171 22.8037 51.5658 21.3334 50.8102 19.6468C50.0547 17.9638 49.675 16.1727 49.675 14.277C49.675 12.3814 50.0364 10.5716 50.7555 8.85131C51.4746 7.13105 52.4893 5.6123 53.7924 4.29505C55.0992 2.9778 56.6541 1.93296 58.4646 1.16052C60.2751 0.388084 62.2754 0 64.4728 0C65.8598 0 67.1447 0.194042 68.3346 0.578395C69.5246 0.966479 70.6014 1.47397 71.576 2.11207C72.5469 2.74644 73.412 3.4853 74.1676 4.32117C74.9232 5.15704 75.5729 6.03023 76.1131 6.92954L74.1968 8.22813C73.0798 6.0377 71.8461 4.44058 70.4955 3.43679C69.145 2.43299 67.5863 1.93296 65.8233 1.93296" fill="black"/>
<path d="M92.3964 14.6164V27.5351H87.9687V0.619248H92.3964V12.8775H105.632V0.619248H110.059V27.5351H105.632V14.6164H92.3964Z" fill="black"/>
<path d="M143.163 0.619248V2.35816H133.629V27.5351H129.201V2.35816H119.667V0.619248H143.163Z" fill="black"/>
<path d="M164.925 28.1699C162.892 28.1699 160.986 27.7968 159.212 27.0505C157.438 26.3042 155.898 25.2817 154.595 23.9868C153.288 22.6883 152.263 21.1807 151.518 19.4604C150.77 17.7402 150.397 15.893 150.397 13.9265C150.397 11.96 150.77 10.18 151.518 8.48586C152.266 6.79172 153.292 5.32148 154.595 4.06766C155.902 2.81759 157.438 1.82872 159.212 1.10106C160.986 0.3734 162.888 0.0114366 164.925 0.0114366C166.962 0.0114366 168.863 0.3734 170.637 1.10106C172.411 1.82872 173.948 2.81759 175.255 4.06766C176.562 5.31774 177.587 6.79172 178.332 8.48586C179.08 10.18 179.453 11.9935 179.453 13.9265C179.453 15.8595 179.08 17.7402 178.332 19.4604C177.584 21.1807 176.558 22.692 175.255 23.9868C173.948 25.2854 172.411 26.3079 170.637 27.0505C168.863 27.7968 166.962 28.1699 164.925 28.1699ZM164.925 26.8154C166.436 26.8154 167.768 26.4945 168.922 25.8489C170.075 25.2033 171.046 24.3115 171.838 23.1696C172.63 22.0278 173.229 20.6657 173.634 19.0835C174.039 17.5014 174.24 15.7811 174.24 13.9228C174.24 12.0644 174.039 10.389 173.634 8.84409C173.229 7.29921 172.63 5.96704 171.838 4.85503C171.046 3.74302 170.075 2.87729 168.922 2.25785C167.768 1.64214 166.436 1.33242 164.925 1.33242C163.414 1.33242 162.045 1.64214 160.873 2.25785C159.702 2.87356 158.727 3.73928 157.942 4.85503C157.157 5.96704 156.57 7.29921 156.172 8.84409C155.774 10.389 155.577 12.0831 155.577 13.9228C155.577 15.7624 155.774 17.5014 156.172 19.0835C156.566 20.6657 157.157 22.0278 157.942 23.1696C158.727 24.3115 159.702 25.2033 160.873 25.8489C162.045 26.4945 163.396 26.8154 164.925 26.8154Z" fill="black"/>
<path d="M190.845 0.619248L198.704 21.0758L205.617 2.60445L212.746 21.1579L220.415 0.619248H222.576L212.45 27.7553H211.125L204.617 10.9707L198.379 27.7553H196.867L186.417 0.619248H190.845Z" fill="black"/>
<path d="M249.74 0.619248V2.35816H235.858V11.9931H245.148V13.732H235.858V25.7962H249.74V27.5351H231.427V0.619248H249.74Z" fill="black"/>
<path d="M269.312 0.619248C270.896 0.619248 272.283 0.794633 273.47 1.1454C274.66 1.49617 275.649 1.97754 276.441 2.59325C277.233 3.20897 277.831 3.95155 278.237 4.81728C278.642 5.683 278.843 6.61963 278.843 7.63462C278.843 8.48169 278.689 9.26905 278.383 9.99671C278.076 10.7244 277.642 11.3811 277.072 11.9707C276.507 12.5603 275.824 13.0678 275.032 13.4895C274.24 13.9149 273.367 14.2432 272.411 14.4821L282 27.5426H276.868L267.713 14.8963H264.607V27.5426H260.179V0.619248H269.312ZM264.611 13.538H267.177C268.166 13.538 269.086 13.4036 269.933 13.1387C270.779 12.8738 271.509 12.4894 272.119 11.9931C272.732 11.4968 273.207 10.8923 273.55 10.1833C273.893 9.47429 274.065 8.67946 274.065 7.79508C274.065 6.98532 273.929 6.24647 273.659 5.57106C273.389 4.89937 273.006 4.32098 272.513 3.83214C272.017 3.3433 271.429 2.96641 270.743 2.70147C270.06 2.43653 269.312 2.30219 268.502 2.30219H264.614V13.538H264.611Z" fill="black"/>
<path d="M169.688 48.7831C170.218 48.7831 171.181 48.8278 171.882 49.3988C172.182 49.6339 172.744 50.2346 172.744 51.4213C172.744 51.9064 172.641 52.7572 171.798 53.343C173.131 53.6789 173.62 54.8693 173.62 55.8059C173.62 56.7425 173.16 57.5075 172.645 57.918C171.886 58.5337 171.01 58.5635 170.349 58.5635H167.969V48.7831H169.692H169.688ZM169.028 53.0781H169.831C170.389 53.0781 171.711 52.9624 171.711 51.4511C171.711 49.8391 170.163 49.8092 169.86 49.8092H169.028V53.0781ZM169.028 57.5336H170.247C170.864 57.5336 171.466 57.4888 171.926 57.1231C172.298 56.8433 172.557 56.3619 172.557 55.7723C172.557 54.9961 172.112 54.5409 171.74 54.3356C171.382 54.1304 170.878 54.0408 170.119 54.0408H169.028V57.5336Z" fill="black"/>
<path d="M191.684 55.8057L190.538 58.5633H189.363L193.765 48.3164L198.054 58.5633H196.878L195.762 55.8057H191.684ZM195.342 54.7795L193.736 50.8651L192.1 54.7795H195.342Z" fill="black"/>
<path d="M214.312 58.5597V48.3725L221.769 56.3618V48.7829H222.831V59L215.374 51.0107V58.5597H214.312Z" fill="black"/>
<path d="M240.209 48.7831H242.159C243.119 48.7831 244.484 48.8875 245.688 49.9249C246.564 50.6712 247.324 51.9176 247.324 53.6789C247.324 55.7313 246.334 56.8321 245.644 57.4329C244.768 58.1941 243.852 58.5635 242.144 58.5635H240.209V48.7831ZM241.272 57.5373H242.202C242.962 57.5373 244.009 57.4478 244.94 56.6567C245.655 56.041 246.232 55.0745 246.232 53.6789C246.232 51.3317 244.626 49.8092 242.202 49.8092H241.272V57.5373Z" fill="black"/>
<path d="M35.4101 58.2127L37.0016 47.8911L40.6737 56.1454L44.4151 47.8762L45.908 58.2127H44.8166L43.915 51.41L40.6591 58.6232L37.4469 51.41L36.4979 58.2127H35.4101Z" fill="black"/>
<path d="M64.0895 54.4324C64.0895 55.2534 64.0895 56.1489 64.8487 56.8057C65.2356 57.1415 65.8963 57.3617 66.4256 57.3617C66.9549 57.3617 67.6155 57.1415 68.0024 56.8057C68.7617 56.1452 68.7617 55.2534 68.7617 54.4324V48.4358H69.8239V54.7272C69.8239 55.5482 69.7363 56.3393 69.2216 57.0744C68.6485 57.8804 67.6447 58.3954 66.4256 58.3954C65.2064 58.3954 64.2026 57.8841 63.6296 57.0744C63.1149 56.343 63.0273 55.5482 63.0273 54.7272V48.4358H64.0895V54.4324Z" fill="black"/>
<path d="M91.4766 50.3689C91.3489 50.104 91.1335 49.8129 90.9181 49.6375C90.732 49.492 90.3889 49.3017 89.8413 49.3017C88.896 49.3017 88.2353 49.9025 88.2353 50.813C88.2353 51.1936 88.3375 51.4137 88.593 51.6638C88.8813 51.9586 89.2391 52.119 89.5968 52.2795L90.513 52.6899C91.0714 52.94 91.5898 53.2049 91.9913 53.6154C92.4804 54.1154 92.6812 54.6863 92.6812 55.3879C92.6812 57.1902 91.3744 58.3918 89.6552 58.3918C89.0237 58.3918 88.2353 58.2612 87.5746 57.6007C87.1001 57.1305 86.8154 56.4588 86.684 55.8693L87.7169 55.5745C87.79 56.0894 88.0199 56.526 88.29 56.8208C88.7061 57.2462 89.1807 57.3619 89.6661 57.3619C90.9729 57.3619 91.5898 56.4103 91.5898 55.4252C91.5898 54.9849 91.462 54.6042 91.1152 54.2833C90.8415 54.0184 90.4692 53.843 89.9691 53.6079L89.1077 53.1974C88.7353 53.0221 88.2608 52.8168 87.8301 52.3914C87.414 51.9809 87.1694 51.5257 87.1694 50.7943C87.1694 49.283 88.301 48.2718 89.8523 48.2718C90.44 48.2718 90.9145 48.3874 91.3854 48.7121C91.7723 48.977 92.1008 49.3726 92.3161 49.798L91.4693 50.3689H91.4766Z" fill="black"/>
<path d="M110.607 48.4358H109.545V58.2162H110.607V48.4358Z" fill="black"/>
<path d="M135.3 50.5891C134.997 50.2793 134.541 49.9137 134.052 49.6786C133.552 49.4435 132.961 49.2979 132.402 49.2979C130.194 49.2979 128.559 51.1152 128.559 53.3728C128.559 56.026 130.668 57.3619 132.417 57.3619C133.063 57.3619 133.694 57.1716 134.194 56.9066C134.738 56.6268 135.125 56.2611 135.3 56.0857V57.4365C134.238 58.2127 133.136 58.3881 132.417 58.3881C129.577 58.3881 127.471 56.1902 127.471 53.3579C127.471 50.5256 129.606 48.2718 132.475 48.2718C133.048 48.2718 134.154 48.3464 135.3 49.2382V50.5891Z" fill="black"/>
<path d="M152.584 53.3429C152.584 53.9213 152.124 54.3915 151.558 54.3915C150.992 54.3915 150.532 53.9213 150.532 53.3429C150.532 52.7645 150.992 52.2944 151.558 52.2944C152.124 52.2944 152.584 52.7645 152.584 53.3429Z" fill="black"/>
</svg>
