<svg width="32" height="32" viewBox="0 0 32 32" fill="none" xmlns="http://www.w3.org/2000/svg">
<path d="M16.0049 0C9.32553 0 7.37177 0.00687501 6.99177 0.038125C5.62114 0.1525 4.76801 0.368125 3.83863 0.831251C3.12237 1.18688 2.55737 1.59938 2.00049 2.1775C0.984865 3.23125 0.369863 4.52813 0.147362 6.06938C0.0392363 6.81751 0.00736114 6.97063 0.00111112 10.7931C-0.00138889 12.0675 0.00111112 13.7444 0.00111112 15.9938C0.00111112 22.67 0.00861115 24.6219 0.0404863 25.0013C0.151112 26.3357 0.360488 27.175 0.803615 28.0932C1.65049 29.8507 3.26738 31.17 5.17176 31.6625C5.83114 31.8325 6.55989 31.9257 7.49489 31.97C7.89115 31.9875 11.9299 31.9994 15.9712 31.9994C20.0124 31.9994 24.0531 31.9944 24.44 31.975C25.5231 31.9238 26.1518 31.8394 26.8469 31.66C28.7637 31.165 30.3512 29.8657 31.215 28.0832C31.6494 27.1869 31.8694 26.3157 31.9694 25.0513C31.9913 24.7757 32 20.3794 32 15.9894C32 11.5988 31.99 7.21063 31.9688 6.93501C31.8681 5.65001 31.6475 4.78563 31.1994 3.8725C30.8312 3.125 30.4231 2.56625 29.83 1.99563C28.7712 0.984376 27.4769 0.36875 25.9344 0.14625C25.1862 0.03875 25.0375 0.00687501 21.2131 0H16.0049Z" fill="url(#paint0_radial_402_1050)"/>
<path d="M16.0049 0C9.32553 0 7.37177 0.00687501 6.99177 0.038125C5.62114 0.1525 4.76801 0.368125 3.83863 0.831251C3.12237 1.18688 2.55737 1.59938 2.00049 2.1775C0.984865 3.23125 0.369863 4.52813 0.147362 6.06938C0.0392363 6.81751 0.00736114 6.97063 0.00111112 10.7931C-0.00138889 12.0675 0.00111112 13.7444 0.00111112 15.9938C0.00111112 22.67 0.00861115 24.6219 0.0404863 25.0013C0.151112 26.3357 0.360488 27.175 0.803615 28.0932C1.65049 29.8507 3.26738 31.17 5.17176 31.6625C5.83114 31.8325 6.55989 31.9257 7.49489 31.97C7.89115 31.9875 11.9299 31.9994 15.9712 31.9994C20.0124 31.9994 24.0531 31.9944 24.44 31.975C25.5231 31.9238 26.1518 31.8394 26.8469 31.66C28.7637 31.165 30.3512 29.8657 31.215 28.0832C31.6494 27.1869 31.8694 26.3157 31.9694 25.0513C31.9913 24.7757 32 20.3794 32 15.9894C32 11.5988 31.99 7.21063 31.9688 6.93501C31.8681 5.65001 31.6475 4.78563 31.1994 3.8725C30.8312 3.125 30.4231 2.56625 29.83 1.99563C28.7712 0.984376 27.4769 0.36875 25.9344 0.14625C25.1862 0.03875 25.0375 0.00687501 21.2131 0H16.0049Z" fill="url(#paint1_radial_402_1050)"/>
<path d="M16.0049 0C9.32553 0 7.37177 0.00687501 6.99177 0.038125C5.62114 0.1525 4.76801 0.368125 3.83863 0.831251C3.12237 1.18688 2.55737 1.59938 2.00049 2.1775C0.984865 3.23125 0.369863 4.52813 0.147362 6.06938C0.0392363 6.81751 0.00736114 6.97063 0.00111112 10.7931C-0.00138889 12.0675 0.00111112 13.7444 0.00111112 15.9938C0.00111112 22.67 0.00861115 24.6219 0.0404863 25.0013C0.151112 26.3357 0.360488 27.175 0.803615 28.0932C1.65049 29.8507 3.26738 31.17 5.17176 31.6625C5.83114 31.8325 6.55989 31.9257 7.49489 31.97C7.89115 31.9875 11.9299 31.9994 15.9712 31.9994C20.0124 31.9994 24.0531 31.9944 24.44 31.975C25.5231 31.9238 26.1518 31.8394 26.8469 31.66C28.7637 31.165 30.3512 29.8657 31.215 28.0832C31.6494 27.1869 31.8694 26.3157 31.9694 25.0513C31.9913 24.7757 32 20.3794 32 15.9894C32 11.5988 31.99 7.21063 31.9688 6.93501C31.8681 5.65001 31.6475 4.78563 31.1994 3.8725C30.8312 3.125 30.4231 2.56625 29.83 1.99563C28.7712 0.984376 27.4769 0.36875 25.9344 0.14625C25.1862 0.03875 25.0375 0.00687501 21.2131 0H16.0049Z" fill="url(#paint2_radial_402_1050)"/>
<path d="M16.0049 0C9.32553 0 7.37177 0.00687501 6.99177 0.038125C5.62114 0.1525 4.76801 0.368125 3.83863 0.831251C3.12237 1.18688 2.55737 1.59938 2.00049 2.1775C0.984865 3.23125 0.369863 4.52813 0.147362 6.06938C0.0392363 6.81751 0.00736114 6.97063 0.00111112 10.7931C-0.00138889 12.0675 0.00111112 13.7444 0.00111112 15.9938C0.00111112 22.67 0.00861115 24.6219 0.0404863 25.0013C0.151112 26.3357 0.360488 27.175 0.803615 28.0932C1.65049 29.8507 3.26738 31.17 5.17176 31.6625C5.83114 31.8325 6.55989 31.9257 7.49489 31.97C7.89115 31.9875 11.9299 31.9994 15.9712 31.9994C20.0124 31.9994 24.0531 31.9944 24.44 31.975C25.5231 31.9238 26.1518 31.8394 26.8469 31.66C28.7637 31.165 30.3512 29.8657 31.215 28.0832C31.6494 27.1869 31.8694 26.3157 31.9694 25.0513C31.9913 24.7757 32 20.3794 32 15.9894C32 11.5988 31.99 7.21063 31.9688 6.93501C31.8681 5.65001 31.6475 4.78563 31.1994 3.8725C30.8312 3.125 30.4231 2.56625 29.83 1.99563C28.7712 0.984376 27.4769 0.36875 25.9344 0.14625C25.1862 0.03875 25.0375 0.00687501 21.2131 0H16.0049Z" fill="black"/>
<path d="M17.3571 13.1429H21.4714L17.3571 9.02857V13.1429ZM12 8H18L22.5 12.5257V21.5771C22.5 22.4103 21.8284 23.0857 21 23.0857H12C11.1675 23.0857 10.5 22.4069 10.5 21.5771V9.50857C10.5 8.67541 11.1716 8 12 8ZM15.8148 15.8857C16.1407 16.6033 16.5542 17.1934 17.0312 17.6L17.3571 17.8551C16.6655 17.9827 15.7114 18.206 14.7017 18.5967L14.6143 18.6286L15.0118 17.7993C15.3696 17.1056 15.6319 16.4757 15.8148 15.8857ZM20.5702 18.7959C20.7046 18.6615 20.7718 18.4898 20.7793 18.3031C20.8017 18.1538 20.7643 18.012 20.6897 17.8925C20.4732 17.5417 19.9132 17.3774 18.9874 17.3774L18.0243 17.4297L17.3748 16.9967C16.9044 16.6085 16.4788 15.9291 16.1802 15.0855L16.2101 14.981C16.4564 13.9881 16.6879 12.7862 16.1951 12.2935C16.0757 12.174 15.9114 12.1143 15.7397 12.1143H15.5605C15.2843 12.1143 15.0379 12.4054 14.9707 12.6891C14.6945 13.682 14.8587 14.227 15.1349 15.1303V15.1378C14.9483 15.7947 14.7094 16.5562 14.3286 17.3252L13.6119 18.6689L12.9474 19.0347C12.0515 19.5947 11.6259 20.2218 11.5438 20.6174C11.5139 20.7593 11.5289 20.8862 11.5811 21.0206L11.6035 21.0579L11.9619 21.2893L12.2904 21.3714C12.8951 21.3714 13.582 20.6622 14.5078 19.0795L14.6422 19.0273C15.4112 18.7809 16.3668 18.6092 17.651 18.4674C18.42 18.8481 19.3234 19.0198 19.8908 19.0198C20.2193 19.0198 20.4433 18.9377 20.5702 18.7959ZM20.3734 18.1829L20.4429 18.2583C20.4351 18.3269 20.412 18.3337 20.3734 18.3474H20.3425L20.1958 18.3611C19.8405 18.3611 19.2923 18.2309 18.7286 18.0114C18.7981 17.9429 18.829 17.9429 18.9062 17.9429C19.9873 17.9429 20.2961 18.1143 20.3734 18.1829ZM13.5857 19.3143C13.0582 20.1303 12.5795 20.5829 12.2143 20.6857C12.2549 20.4251 12.62 19.9726 13.1962 19.5269L13.5857 19.3143ZM15.7707 14.1714C15.613 13.4604 15.6062 12.8837 15.7227 12.5519L15.7707 12.4571L15.8736 12.4966C15.9902 12.6862 16.0039 12.939 15.9353 13.3656L15.9147 13.492L15.805 14.1398L15.7707 14.1714Z" fill="white"/>
<defs>
<radialGradient id="paint0_radial_402_1050" cx="0" cy="0" r="1" gradientUnits="userSpaceOnUse" gradientTransform="translate(30.9669 14.999) rotate(164.251) scale(20.4463 14.7306)">
<stop stop-color="#FF005F"/>
<stop offset="1" stop-color="#FC01D8"/>
</radialGradient>
<radialGradient id="paint1_radial_402_1050" cx="0" cy="0" r="1" gradientUnits="userSpaceOnUse" gradientTransform="translate(8.49969 34.4647) rotate(-90) scale(25.5431 27.1008)">
<stop stop-color="#FFCC00"/>
<stop offset="0.1242" stop-color="#FFCC00"/>
<stop offset="0.5672" stop-color="#FE4A05"/>
<stop offset="0.6942" stop-color="#FF0F3F"/>
<stop offset="1" stop-color="#FE0657" stop-opacity="0"/>
</radialGradient>
<radialGradient id="paint2_radial_402_1050" cx="0" cy="0" r="1" gradientUnits="userSpaceOnUse" gradientTransform="translate(16.8083 31.5486) rotate(-59.8696) scale(10.5623 13.751)">
<stop stop-color="#FFCC00"/>
<stop offset="1" stop-color="#FFCC00" stop-opacity="0"/>
</radialGradient>
</defs>
</svg>
