<svg width="34" height="34" viewBox="0 0 34 34" fill="none" xmlns="http://www.w3.org/2000/svg">
<path d="M17.0049 1.00049C10.3255 1.00049 8.37177 1.00736 7.99177 1.03861C6.62114 1.15299 5.76801 1.36861 4.83863 1.83174C4.12237 2.18736 3.55737 2.59986 3.00049 3.17799C1.98487 4.23174 1.36986 5.52862 1.14736 7.06987C1.03924 7.81799 1.00736 7.97112 1.00111 11.7936C0.998611 13.068 1.00111 14.7449 1.00111 16.9943C1.00111 23.6705 1.00861 25.6224 1.04049 26.0018C1.15111 27.3361 1.36049 28.1755 1.80361 29.0936C2.65049 30.8511 4.26738 32.1705 6.17176 32.663C6.83114 32.833 7.55989 32.9261 8.49489 32.9705C8.89115 32.988 12.9299 32.9999 16.9712 32.9999C21.0124 32.9999 25.0531 32.9949 25.44 32.9755C26.5231 32.9243 27.1519 32.8399 27.8469 32.6605C29.7637 32.1655 31.3512 30.8661 32.215 29.0836C32.6494 28.1874 32.8694 27.3161 32.9694 26.0518C32.9913 25.7761 33 21.3799 33 16.9899C33 12.5992 32.99 8.21112 32.9688 7.93549C32.8681 6.65049 32.6475 5.78612 32.1994 4.87299C31.8312 4.12549 31.4231 3.56674 30.83 2.99612C29.7712 1.98486 28.4769 1.36924 26.9344 1.14674C26.1862 1.03924 26.0375 1.00736 22.2131 1.00049H17.0049Z" fill="white" stroke="#A9A9A9" stroke-width="0.5"/>
<path d="M24.6035 9.88156C24.5129 9.79138 24.3984 9.72894 24.2736 9.70158C24.1487 9.67423 24.0186 9.6831 23.8986 9.72715L9.12858 15.0981C9.0012 15.1464 8.89153 15.2323 8.81415 15.3444C8.73676 15.4565 8.69531 15.5895 8.69531 15.7258C8.69531 15.862 8.73676 15.995 8.81415 16.1071C8.89153 16.2193 9.0012 16.3052 9.12858 16.3535L14.8956 18.6563L19.152 14.3864L20.0987 15.333L15.8221 19.6096L18.1316 25.3766C18.1813 25.5015 18.2674 25.6086 18.3788 25.6841C18.4901 25.7595 18.6215 25.7997 18.7559 25.7996C18.8916 25.7968 19.0232 25.753 19.1335 25.6739C19.2438 25.5948 19.3275 25.4841 19.3736 25.3565L24.7445 10.5865C24.7902 10.4677 24.8013 10.3384 24.7763 10.2136C24.7513 10.0888 24.6914 9.97361 24.6035 9.88156Z" fill="black"/>
</svg>
