<svg width="32" height="32" viewBox="0 0 32 32" fill="none" xmlns="http://www.w3.org/2000/svg">
<path d="M16.0052 0C9.3257 0 7.37191 0.00687514 6.9919 0.0381257C5.62124 0.152503 4.7681 0.368132 3.8387 0.831266C3.12243 1.1869 2.55742 1.59941 2.00053 2.17754C0.984884 3.23131 0.36987 4.52821 0.147364 6.06949C0.039237 6.81763 0.00736128 6.97076 0.00111114 10.7933C-0.00138892 12.0677 0.00111114 13.7446 0.00111114 15.9941C0.00111114 22.6704 0.00861131 24.6224 0.040487 25.0017C0.151115 26.3361 0.360494 27.1755 0.80363 28.0937C1.65052 29.8512 3.26744 31.1706 5.17186 31.6631C5.83125 31.8331 6.56001 31.9262 7.49503 31.9706C7.89129 31.9881 11.9301 32 15.9715 32C20.0128 32 24.0535 31.995 24.4404 31.9756C25.5236 31.9244 26.1523 31.84 26.8474 31.6606C28.7643 31.1656 30.3518 29.8662 31.2156 28.0837C31.65 27.1874 31.87 26.3161 31.97 25.0517C31.9918 24.7761 32.0006 20.3798 32.0006 15.9897C32.0006 11.599 31.9906 7.21077 31.9693 6.93514C31.8687 5.65011 31.6481 4.78572 31.2 3.87258C30.8318 3.12506 30.4237 2.5663 29.8305 1.99566C28.7718 0.984394 27.4774 0.368757 25.9348 0.146253C25.1867 0.0387508 25.0379 0.00687513 21.2135 0H16.0052Z" fill="#ED1D24"/>
<path d="M25.1398 11.1299C24.9263 10.292 24.2322 9.62171 23.4314 9.39827C21.6161 8.89554 10.6714 8.83968 8.58928 9.39827C7.78845 9.62171 7.0944 10.292 6.88084 11.1299C6.40034 13.2526 6.34695 18.6709 6.88084 20.8494C7.0944 21.6873 7.78845 22.3576 8.58928 22.5811C10.5113 23.1396 21.456 23.1396 23.4314 22.5811C24.2322 22.3576 24.9263 21.6873 25.1398 20.8494C25.6203 18.8385 25.6203 13.1967 25.1398 11.1299Z" fill="white"/>
<path d="M13.7502 12.6875V19.3125L19.5627 16" fill="#ED1D24"/>
</svg>
